<?xml version="1.0" encoding="UTF-8"?>
<svg version="1.1" xmlns="http://www.w3.org/2000/svg" width="1024" height="505">
<path d="M0 0 C0.8452977 -0.00191345 1.6905954 -0.0038269 2.56150818 -0.00579834 C4.34073181 -0.00715395 6.11996553 -0.0035013 7.89916992 0.00488281 C10.61594912 0.0156047 13.33206914 0.00495953 16.04882812 -0.0078125 C17.78255354 -0.00649106 19.51627854 -0.00392897 21.25 0 C22.05844864 -0.00404846 22.86689728 -0.00809692 23.69984436 -0.01226807 C28.86567405 0.03052332 32.99740272 0.19221403 36.8293457 4.046875 C38.31883574 6.73535275 38.53802951 8.70382871 38.7265625 11.765625 C38.81615234 12.8175 38.90574219 13.869375 38.99804688 14.953125 C39.16330895 17.16008941 39.30917621 19.36859249 39.43554688 21.578125 C39.7618643 27.23267505 39.7618643 27.23267505 42.67211914 31.80078125 C44.77290483 32.8821398 46.79413743 33.59681294 49.05859375 34.265625 C50.4055909 34.78140708 51.75070093 35.30214813 53.09375 35.828125 C55.10775446 36.5548075 57.12623966 37.26743128 59.14648438 37.9765625 C63.7750603 39.64986692 67.84189238 41.72134745 72.05859375 44.265625 C70.67863649 48.26964607 68.84393339 51.03563801 66.12109375 54.265625 C65.32960937 55.21050781 64.538125 56.15539062 63.72265625 57.12890625 C62.83489177 58.17469684 61.94685606 59.22025722 61.05859375 60.265625 C60.0451777 61.46711468 59.03216857 62.66894767 58.01953125 63.87109375 C55.37320448 67.00886304 52.71801131 70.13894529 50.05859375 73.265625 C49.42695313 73.08386719 48.7953125 72.90210938 48.14453125 72.71484375 C45.12402977 71.86614377 42.09166656 71.06817823 39.05859375 70.265625 C38.09050781 69.97945313 37.12242187 69.69328125 36.125 69.3984375 C13.13734416 63.37171125 -10.63939269 66.59275426 -31.14746094 78.20556641 C-51.23389723 90.07482422 -65.4638097 109.57038254 -71.37890625 132.078125 C-75.20922126 148.64496841 -74.57543168 167.22890555 -68.94140625 183.265625 C-68.56757812 184.33683594 -68.19375 185.40804687 -67.80859375 186.51171875 C-59.30487781 208.61574858 -41.4891649 225.44843775 -20.24560547 235.29492188 C-2.0343385 242.96688601 16.48393693 243.57015768 35.69921875 240.01953125 C36.41480957 239.899729 37.13040039 239.77992676 37.86767578 239.65649414 C39.36819644 239.38879484 40.85981704 239.06724891 42.33935547 238.70092773 C45.751307 238.00565802 47.99629588 237.62837583 51.06054688 239.46655273 C53.09011437 241.27248428 54.88387734 243.16837453 56.68359375 245.203125 C57.33166992 245.89374023 57.97974609 246.58435547 58.64746094 247.29589844 C60.48009591 249.26174867 62.27463965 251.2556328 64.05859375 253.265625 C65.25355469 254.59013672 65.25355469 254.59013672 66.47265625 255.94140625 C67.58442109 257.19746397 68.68445316 258.46423139 69.76171875 259.75 C71.06595027 261.3285586 71.06595027 261.3285586 72.73046875 262.84375 C74.05859375 264.265625 74.05859375 264.265625 74.05859375 266.265625 C64.29633681 271.42131695 54.45703594 275.57890459 44.05859375 279.265625 C43.74300425 281.53603103 43.43131016 283.80697858 43.12109375 286.078125 C43.02755615 286.75794434 42.93401855 287.43776367 42.83764648 288.13818359 C42.28898697 292.22120884 41.89115523 296.27781365 41.62109375 300.390625 C41.2896421 304.36804478 40.68844721 307.10980084 38.05859375 310.265625 C30.63055893 313.97964241 19.5516671 312.44900028 11.49609375 312.453125 C10.23345703 312.46537109 8.97082031 312.47761719 7.66992188 312.49023438 C0.83822297 312.50093678 -5.39869164 312.33210674 -11.94140625 310.265625 C-14.18198446 306.90475768 -14.37819746 305.10663108 -14.79296875 301.13671875 C-14.98632812 299.33750977 -14.98632812 299.33750977 -15.18359375 297.50195312 C-15.37308594 295.6215332 -15.37308594 295.6215332 -15.56640625 293.703125 C-15.70046875 292.44564453 -15.83453125 291.18816406 -15.97265625 289.89257812 C-16.94140625 280.70428093 -16.94140625 280.70428093 -16.94140625 278.265625 C-18.70484375 277.95625 -18.70484375 277.95625 -20.50390625 277.640625 C-29.15903291 275.72335011 -37.79427861 272.06076377 -45.56640625 267.828125 C-49.37879716 266.06312921 -50.08224614 265.94786301 -53.94140625 267.265625 C-56.39497269 268.86882448 -58.62767748 270.70492819 -60.87890625 272.578125 C-72.25980764 281.88752972 -72.25980764 281.88752972 -76.42578125 282.82421875 C-80.13070648 282.00154125 -82.44968881 279.8095728 -85.19140625 277.328125 C-85.78550293 276.80323486 -86.37959961 276.27834473 -86.99169922 275.73754883 C-92.14827926 271.11575968 -97.13106545 266.30925794 -102.06640625 261.453125 C-102.78860352 260.74873291 -103.51080078 260.04434082 -104.25488281 259.31860352 C-108.32856334 255.23867502 -111.34125021 251.41878399 -113.94140625 246.265625 C-112.75572506 244.75833046 -111.56992014 243.2511331 -110.38354492 241.74438477 C-109.37672275 240.4621282 -108.37299629 239.17743511 -107.37231445 237.89038086 C-105.1656728 235.05755421 -102.95204598 232.27774443 -100.58203125 229.578125 C-96.7544046 225.36742881 -96.7544046 225.36742881 -96.12890625 219.953125 C-96.87524769 218.18114294 -96.87524769 218.18114294 -97.94140625 216.265625 C-98.37710938 215.39292969 -98.8128125 214.52023437 -99.26171875 213.62109375 C-100.27868507 211.58982333 -101.30649714 209.56395527 -102.34375 207.54296875 C-108.94140625 194.00890128 -108.94140625 194.00890128 -108.94140625 188.265625 C-109.66730957 188.19045654 -110.39321289 188.11528809 -111.14111328 188.0378418 C-114.45093701 187.68825719 -117.75855282 187.32086756 -121.06640625 186.953125 C-122.20851563 186.83517578 -123.350625 186.71722656 -124.52734375 186.59570312 C-135.3267227 185.37135493 -135.3267227 185.37135493 -139.94140625 182.265625 C-145.83835649 170.47172452 -142.42300946 148.46292927 -141.0625 135.6640625 C-139.94140625 133.265625 -139.94140625 133.265625 -137.09765625 131.53515625 C-131.91925602 129.67074573 -126.44212878 129.19587467 -121.00390625 128.578125 C-119.93849609 128.44857422 -118.87308594 128.31902344 -117.77539062 128.18554688 C-115.16503565 127.86949493 -112.55392848 127.56313302 -109.94140625 127.265625 C-109.71614258 126.63640137 -109.49087891 126.00717773 -109.25878906 125.35888672 C-107.54076928 120.56505733 -105.76815083 115.80555324 -103.89453125 111.0703125 C-103.53294922 110.14758545 -103.17136719 109.2248584 -102.79882812 108.27416992 C-102.06873329 106.41432738 -101.33062272 104.55760875 -100.58398438 102.7043457 C-97.8899537 96.17099651 -97.8899537 96.17099651 -97.94140625 89.265625 C-99.61639103 87.01275581 -101.15543914 85.21122544 -103.12890625 83.265625 C-105.07312871 81.27208315 -107.01288563 79.27436477 -108.94140625 77.265625 C-109.42947754 76.75902344 -109.91754883 76.25242187 -110.42041016 75.73046875 C-112.47764804 73.46061334 -113.84141264 71.73013433 -114.4921875 68.70703125 C-113.75239688 65.42781753 -112.32046884 63.74779399 -110.12890625 61.203125 C-109.3090625 60.24535156 -108.48921875 59.28757813 -107.64453125 58.30078125 C-104.01409672 54.19860285 -100.32308876 50.15293812 -96.59375 46.140625 C-93.52915807 42.81876983 -90.55318733 39.42671074 -87.59765625 36.0078125 C-85.42186452 33.71912591 -83.71996223 32.36778666 -80.546875 31.95141602 C-77.33726611 32.33848186 -75.83834235 33.37039392 -73.25390625 35.29296875 C-72.39023438 35.92009766 -71.5265625 36.54722656 -70.63671875 37.19335938 C-69.74726562 37.85658203 -68.8578125 38.51980469 -67.94140625 39.203125 C-66.17627073 40.51162764 -64.40561028 41.81271768 -62.62890625 43.10546875 C-61.84902344 43.68675537 -61.06914063 44.26804199 -60.265625 44.86694336 C-57.73693075 46.38867544 -55.8741557 47.00222592 -52.94140625 47.265625 C-49.89514762 45.86958646 -49.89514762 45.86958646 -46.75390625 43.765625 C-40.39120964 39.82846757 -33.88080096 37.11798296 -26.80786133 34.70117188 C-22.71539139 33.38669166 -22.71539139 33.38669166 -19.74902344 30.47949219 C-18.83953348 27.98636795 -18.56211102 25.84984926 -18.37890625 23.203125 C-18.30414063 22.24148437 -18.229375 21.27984375 -18.15234375 20.2890625 C-18.08273438 19.29132813 -18.013125 18.29359375 -17.94140625 17.265625 C-17.80328626 15.28590509 -17.65773541 13.30668626 -17.50390625 11.328125 C-17.44332031 10.45285156 -17.38273437 9.57757813 -17.3203125 8.67578125 C-16.90280729 6.02010376 -16.54785614 4.43409817 -14.94140625 2.265625 C-10.06234347 -0.07944446 -5.29498432 -0.02658221 0 0 Z " fill="#851EFC" transform="translate(186.94140625,81.734375)"/>
<path d="M0 0 C0.70382812 0.52722656 1.40765625 1.05445313 2.1328125 1.59765625 C2.1328125 2.25765625 2.1328125 2.91765625 2.1328125 3.59765625 C2.7928125 3.59765625 3.4528125 3.59765625 4.1328125 3.59765625 C4.4628125 2.27765625 4.7928125 0.95765625 5.1328125 -0.40234375 C11.0728125 -0.40234375 17.0128125 -0.40234375 23.1328125 -0.40234375 C24.12634091 3.57176989 24.2769353 7.10901 24.265625 11.16015625 C24.26712555 11.90009323 24.2686261 12.64003021 24.27017212 13.40238953 C24.27252349 15.80086717 24.26628837 18.19919365 24.2578125 20.59765625 C24.25559692 21.41078278 24.25338135 22.2239093 24.25109863 23.06167603 C24.18858124 42.51396141 24.18858124 42.51396141 23.8828125 51.28515625 C23.86879395 52.02314453 23.85477539 52.76113281 23.84033203 53.52148438 C23.52260783 60.28063201 21.10181015 66.13640919 16.8828125 71.41015625 C8.64927451 77.95956147 0.50544873 79.4246318 -9.8671875 78.59765625 C-16.11433796 77.18481296 -20.83043913 74.66770652 -24.74609375 69.54296875 C-26.62251865 66.28701195 -27.29157163 63.30718072 -27.8671875 59.59765625 C-26.8671875 58.59765625 -26.8671875 58.59765625 -23.26953125 58.5 C-21.78121883 58.50667405 -20.29292318 58.51863442 -18.8046875 58.53515625 C-17.66676758 58.54192383 -17.66676758 58.54192383 -16.50585938 58.54882812 C-14.62626879 58.56064945 -12.74671851 58.57858547 -10.8671875 58.59765625 C-10.5371875 59.58765625 -10.2071875 60.57765625 -9.8671875 61.59765625 C-6.84850316 63.10699842 -4.19421521 62.77276297 -0.8671875 62.59765625 C2.30290722 60.97686963 2.30290722 60.97686963 2.64453125 58.43359375 C2.73154297 57.21542969 2.73154297 57.21542969 2.8203125 55.97265625 C2.88605469 55.15539062 2.95179688 54.338125 3.01953125 53.49609375 C3.07560547 52.55636719 3.07560547 52.55636719 3.1328125 51.59765625 C2.235625 52.30921875 2.235625 52.30921875 1.3203125 53.03515625 C-3.3037326 56.33804561 -8.39732554 56.19618218 -13.8671875 55.59765625 C-19.59246322 53.61001336 -23.21361378 49.78669127 -25.9609375 44.48828125 C-30.73403471 34.32840291 -31.29233804 23.33197973 -27.8671875 12.59765625 C-25.42053265 7.16498813 -22.5745943 1.77765142 -16.9921875 -0.8515625 C-11.3558096 -2.31246192 -5.27418418 -2.57960779 0 0 Z M-6.6171875 15.97265625 C-9.28129759 19.43599937 -9.119515 22.70209261 -9.1796875 26.91015625 C-9.21707031 28.22628906 -9.25445313 29.54242188 -9.29296875 30.8984375 C-8.81333537 35.0655275 -7.76130374 36.64645685 -4.8671875 39.59765625 C-0.61533234 39.28178944 -0.61533234 39.28178944 2.80859375 36.984375 C4.594165 33.76613302 4.53127364 31.32400405 4.5078125 27.66015625 C4.51554688 26.45488281 4.52328125 25.24960938 4.53125 24.0078125 C4.07444533 20.09810194 2.93788317 17.40272692 0.1328125 14.59765625 C-2.77000098 14.29209694 -4.27679768 14.13377853 -6.6171875 15.97265625 Z " fill="#000000" transform="translate(584.8671875,208.40234375)"/>
<path d="M0 0 C1 1 1 1 1.11352539 2.94946289 C1.10828857 3.7821167 1.10305176 4.61477051 1.09765625 5.47265625 C1.09443359 6.37177734 1.09121094 7.27089844 1.08789062 8.19726562 C1.07532227 9.61555664 1.07532227 9.61555664 1.0625 11.0625 C1.05798828 12.01189453 1.05347656 12.96128906 1.04882812 13.93945312 C1.0370011 16.29303065 1.02052025 18.64648477 1 21 C1.66 21.33 2.32 21.66 3 22 C2.01 22.33 1.02 22.66 0 23 C-0.40863281 22.54109375 -0.81726563 22.0821875 -1.23828125 21.609375 C-4.75497732 18.39678347 -9.63962614 16.96494494 -14.3671875 17.03515625 C-16.25711489 17.27391932 -18.13204314 17.62640863 -20 18 C-20 20.64 -20 23.28 -20 26 C-19.43925781 26.27328125 -18.87851563 26.5465625 -18.30078125 26.828125 C-8.54724183 31.7959719 0.14437988 36.91525051 5 47 C7.15235975 53.91624933 6.81355088 61.67202358 3.91015625 68.2890625 C0.44253287 74.80759915 -5.05199972 78.72947536 -12 81 C-14.59519104 81.24206771 -17.03228366 81.37993381 -19.625 81.375 C-20.32560547 81.37628906 -21.02621094 81.37757813 -21.74804688 81.37890625 C-28.12041539 81.25064266 -33.15950266 79.59577659 -39 77 C-39 70.4 -39 63.8 -39 57 C-33 59 -33 59 -31.0625 60.0625 C-26.77653919 62.01066401 -23.07741356 62.29384006 -18.5625 61.0625 C-17.716875 60.711875 -16.87125 60.36125 -16 60 C-15.49734308 57.21160696 -15.49734308 57.21160696 -16 54 C-18.71392141 51.13530518 -21.58797079 49.26745756 -24.89453125 47.12109375 C-38.35797861 38.37234312 -38.35797861 38.37234312 -41 29 C-41.86737879 20.9616175 -41.42856 13.90334352 -37 7 C-27.73283957 -4.27087079 -12.92762487 -5.92644085 0 0 Z " fill="#010102" transform="translate(245,185)"/>
<path d="M0 0 C5.81934193 -0.29901757 8.9297618 1.2161706 14.9140625 3.2109375 C14.9140625 10.1409375 14.9140625 17.0709375 14.9140625 24.2109375 C9.9140625 23.2109375 9.9140625 23.2109375 7.9140625 22.2109375 C2.5285936 21.5949525 -1.74973762 21.49511613 -6.5859375 24.0859375 C-11.39137884 29.03026442 -12.23841484 36.16266004 -12.4609375 42.7734375 C-12.24027844 49.55630509 -10.97505909 54.99928296 -6.5234375 60.2109375 C-2.67859094 63.36568339 -0.24871722 63.47647875 4.58984375 63.4453125 C7.7990844 63.12169159 10.15730388 61.82464987 12.9140625 60.2109375 C13.5740625 60.2109375 14.2340625 60.2109375 14.9140625 60.2109375 C16.07242088 63.8882657 16.04719128 67.37415173 16.0390625 71.2109375 C16.04292969 73.03625 16.04292969 73.03625 16.046875 74.8984375 C15.8307625 80.2885375 15.8307625 80.2885375 14.9140625 82.2109375 C10.8142638 84.66300758 6.38142541 84.59622108 1.7265625 84.5859375 C0.97205811 84.58432617 0.21755371 84.58271484 -0.55981445 84.58105469 C-6.73874601 84.44585121 -11.65179585 83.241721 -17.0859375 80.2109375 C-18.1171875 79.6953125 -19.1484375 79.1796875 -20.2109375 78.6484375 C-28.90612055 71.27643448 -33.56070644 61.58288761 -35.8359375 50.5859375 C-36.92748028 35.85011003 -34.12442167 24.35492782 -25.8984375 11.8984375 C-18.15531342 4.49945227 -10.51041077 1.06285053 0 0 Z " fill="#010101" transform="translate(328.0859375,181.7890625)"/>
<path d="M0 0 C1.91796875 1.09765625 1.91796875 1.09765625 4.73046875 3.09765625 C5.88858263 2.04495162 5.88858263 2.04495162 6.73046875 0.09765625 C13.00046875 0.09765625 19.27046875 0.09765625 25.73046875 0.09765625 C26.60004765 3.57597186 26.82747083 5.90422608 26.75219727 9.41699219 C26.73210098 10.47778992 26.7120047 11.53858765 26.69129944 12.63153076 C26.66426437 13.77019592 26.63722931 14.90886108 26.609375 16.08203125 C26.57395851 17.83812714 26.57395851 17.83812714 26.53782654 19.62969971 C26.46125073 23.36914376 26.37719971 27.10837756 26.29296875 30.84765625 C26.23974201 33.38280221 26.18700165 35.91795843 26.13476562 38.453125 C26.00564367 44.6681019 25.8698173 50.88290057 25.73046875 57.09765625 C19.46046875 57.09765625 13.19046875 57.09765625 6.73046875 57.09765625 C6.23546875 55.11765625 6.23546875 55.11765625 5.73046875 53.09765625 C5.25738281 53.45859375 4.78429687 53.81953125 4.296875 54.19140625 C-0.91914105 57.85176839 -4.92149896 59.17139405 -11.26953125 58.09765625 C-16.73298029 56.10139603 -20.77050106 53.06050451 -23.43359375 47.796875 C-28.49564929 35.79725413 -28.68295934 23.3498596 -24.26953125 11.09765625 C-19.18863472 1.16946763 -11.41483808 -4.5384296 0 0 Z M-2.26953125 15.09765625 C-6.22358205 18.92415702 -6.97620424 22.17045521 -7.30859375 27.45703125 C-7.24952853 31.44983992 -6.8333103 35.3956487 -5.26953125 39.09765625 C-2.03699329 41.25268156 -1.01802202 41.5662176 2.73046875 41.09765625 C5.23527985 39.21904792 5.717475 38.13663751 6.73046875 35.09765625 C7.24647001 28.31025507 7.6007456 21.90307152 3.73046875 16.09765625 C0.64676988 15.04016068 0.64676988 15.04016068 -2.26953125 15.09765625 Z " fill="#000000" transform="translate(757.26953125,207.90234375)"/>
<path d="M0 0 C6.24879803 6.08857244 5.96566858 12.76176329 6.125 21 C6.15770996 22.19028809 6.19041992 23.38057617 6.22412109 24.60693359 C6.31504393 28.1962206 6.38184505 31.7850048 6.4375 35.375 C6.45409668 36.43074219 6.47069336 37.48648438 6.48779297 38.57421875 C6.52496676 41.38290489 6.54922841 44.19110685 6.5625 47 C6.56725342 47.83998535 6.57200684 48.6799707 6.5769043 49.54541016 C6.56059312 55.25190688 6.56059312 55.25190688 5.4375 56.375 C4.02179877 56.46151611 2.601905 56.48204904 1.18359375 56.47265625 C0.32958984 56.46943359 -0.52441406 56.46621094 -1.40429688 56.46289062 C-2.30212891 56.45451172 -3.19996094 56.44613281 -4.125 56.4375 C-5.02669922 56.43298828 -5.92839844 56.42847656 -6.85742188 56.42382812 C-9.09251314 56.41200225 -11.32747437 56.3955222 -13.5625 56.375 C-14.65658004 53.09275989 -14.661408 50.72562413 -14.625 47.2734375 C-14.61726563 46.06042969 -14.60953125 44.84742188 -14.6015625 43.59765625 C-14.57575875 41.05598716 -14.54972151 38.51432042 -14.5234375 35.97265625 C-14.48142393 29.34151387 -14.65027579 22.94586499 -15.5625 16.375 C-17.8725 16.705 -20.1825 17.035 -22.5625 17.375 C-24.64229171 21.6197241 -24.81265176 25.41397481 -24.72265625 30.046875 C-24.71745468 30.76989807 -24.71225311 31.49292114 -24.70689392 32.237854 C-24.68916207 34.53377915 -24.65797527 36.82924724 -24.625 39.125 C-24.597403 41.43498852 -24.57272281 43.7449163 -24.55381775 46.05499268 C-24.54153374 47.48957978 -24.52390406 48.9241327 -24.50050354 50.35858154 C-24.48355805 52.03076286 -24.51787058 53.70332846 -24.5625 55.375 C-24.8925 55.705 -25.2225 56.035 -25.5625 56.375 C-32.1625 56.375 -38.7625 56.375 -45.5625 56.375 C-45.5625 37.565 -45.5625 18.755 -45.5625 -0.625 C-38.9625 -0.625 -32.3625 -0.625 -25.5625 -0.625 C-25.2325 1.025 -24.9025 2.675 -24.5625 4.375 C-23.634375 3.570625 -22.70625 2.76625 -21.75 1.9375 C-15.84279384 -3.18207867 -6.90027598 -3.14749431 0 0 Z " fill="#000000" transform="translate(460.5625,208.625)"/>
<path d="M0 0 C0 6.27 0 12.54 0 19 C-6.93 19 -13.86 19 -21 19 C-21 23.62 -21 28.24 -21 33 C-14.73 33 -8.46 33 -2 33 C-1.979375 35.784375 -1.95875 38.56875 -1.9375 41.4375 C-1.928396 42.31591553 -1.91929199 43.19433105 -1.90991211 44.09936523 C-1.90276909 46.06645974 -1.94968107 48.03353621 -2 50 C-3 51 -3 51 -4.76586914 51.11352539 C-5.51473389 51.10828857 -6.26359863 51.10305176 -7.03515625 51.09765625 C-8.12775757 51.09390991 -8.12775757 51.09390991 -9.24243164 51.09008789 C-10.1730542 51.08098389 -11.10367676 51.07187988 -12.0625 51.0625 C-16.4865625 51.0315625 -16.4865625 51.0315625 -21 51 C-21 60.9 -21 70.8 -21 81 C-27.27 81 -33.54 81 -40 81 C-40.495 81.99 -40.495 81.99 -41 83 C-41.13135319 75.08892679 -41.26180832 67.17783947 -41.39115143 59.26673317 C-41.45125321 55.5923656 -41.51165165 51.91800343 -41.57275391 48.24365234 C-41.63182993 44.69046542 -41.69009293 41.13726597 -41.74781799 37.58405685 C-41.78050482 35.58464412 -41.81400996 33.58524482 -41.84753418 31.58584595 C-42.17275588 11.43436985 -42.17275588 11.43436985 -41.5 4.875 C-41.4071875 3.94429687 -41.314375 3.01359375 -41.21875 2.0546875 C-41.1465625 1.37664062 -41.074375 0.69859375 -41 0 C-35.8040704 -0.1678439 -30.60798544 -0.32837923 -25.41162109 -0.48217773 C-23.64430686 -0.53551165 -21.87705145 -0.5908341 -20.10986328 -0.64819336 C-17.56816288 -0.730345 -15.02633597 -0.80531788 -12.484375 -0.87890625 C-11.69569031 -0.90594131 -10.90700562 -0.93297638 -10.09442139 -0.96083069 C-6.44537128 -1.05986612 -3.5735774 -0.89339435 0 0 Z " fill="#010102" transform="translate(196,184)"/>
<path d="M0 0 C0.09977129 5.35272952 0.1718895 10.70490357 0.21972656 16.05834961 C0.23969343 17.87485193 0.26687687 19.69129121 0.30175781 21.50756836 C0.72308449 44.02995767 0.72308449 44.02995767 -5.30664062 51.65161133 C-12.63037441 58.49345532 -21.57452921 58.65889058 -30.984375 58.3515625 C-37.31245577 57.94621539 -41.00671009 55.72751792 -45.8125 51.5625 C-51.84117925 44.50033287 -52.15524023 38.0297196 -52.09765625 29.1015625 C-52.0962413 28.26660248 -52.09482635 27.43164246 -52.09336853 26.57138062 C-52.08780174 23.92254958 -52.07525547 21.2738052 -52.0625 18.625 C-52.0574807 16.82161581 -52.05291855 15.01823029 -52.04882812 13.21484375 C-52.03869701 8.80983614 -52.0191153 4.4050143 -52 0 C-45.07 0 -38.14 0 -31 0 C-31.02320313 2.30097656 -31.04640625 4.60195312 -31.0703125 6.97265625 C-31.08594392 9.2199651 -31.09806874 11.46726772 -31.10986328 13.71459961 C-31.11987381 15.26736191 -31.13348634 16.82010558 -31.15087891 18.37280273 C-31.17534652 20.61446755 -31.18653268 22.85588149 -31.1953125 25.09765625 C-31.20563507 25.78336197 -31.21595764 26.46906769 -31.22659302 27.17555237 C-31.22766334 31.85297079 -30.44423099 35.6048403 -29 40 C-25.535 40.495 -25.535 40.495 -22 41 C-20.85192189 36.8538727 -20.77423761 32.79322882 -20.68359375 28.515625 C-20.66281265 27.70003113 -20.64203156 26.88443726 -20.62062073 26.04412842 C-20.55538703 23.44616895 -20.49636232 20.84811087 -20.4375 18.25 C-20.39428986 16.485667 -20.35067478 14.72134387 -20.30664062 12.95703125 C-20.19973255 8.63812116 -20.09839173 4.31911216 -20 0 C-17.04196565 -0.19421438 -14.08379837 -0.38066186 -11.125 -0.5625 C-10.28324219 -0.61857422 -9.44148437 -0.67464844 -8.57421875 -0.73242188 C-7.76855469 -0.78076172 -6.96289062 -0.82910156 -6.1328125 -0.87890625 C-5.38918457 -0.9260376 -4.64555664 -0.97316895 -3.87939453 -1.02172852 C-2 -1 -2 -1 0 0 Z " fill="#000000" transform="translate(674,208)"/>
<path d="M0 0 C7.01981346 6.32290058 10.49329073 12.16963643 11.30859375 21.55078125 C11.66075936 32.16910809 10.0168149 40.61771009 2.64453125 48.53125 C-4.44475053 54.86277007 -12.04105314 55.54564722 -21.2265625 55.33984375 C-28.12238457 54.71879145 -32.6043518 51.73041718 -37.3125 46.8125 C-44.26628887 37.74739362 -45.10802271 28.04595837 -44 17 C-42.22319727 9.60892117 -37.29469942 2.87420889 -30.98046875 -1.3515625 C-21.40636361 -6.44066619 -8.93893127 -6.62210623 0 0 Z M-21.25 13.875 C-24.34151851 19.39556877 -24.58668969 25.29778973 -23.25 31.4375 C-22.04385097 35.5248749 -22.04385097 35.5248749 -19 38 C-15.41666667 38.08333333 -15.41666667 38.08333333 -12 37 C-8.89336499 32.31407227 -8.62076883 26.13392428 -9.28125 20.67578125 C-9.90813967 17.84955367 -10.71986703 15.42686928 -12.3125 13 C-15.86628868 10.89405115 -18.12915269 11.27429391 -21.25 13.875 Z " fill="#000000" transform="translate(394,211)"/>
<path d="M0 0 C3.75123873 2.95310283 5.63723515 5.46953764 7 10 C7.34211687 13.50212653 7.39635841 16.99868189 7.44921875 20.515625 C7.47095657 21.52719666 7.4926944 22.53876831 7.51509094 23.58099365 C7.55890872 25.71243673 7.59813073 27.84397861 7.63305664 29.97558594 C7.68753779 33.25227312 7.75766886 36.52835238 7.83007812 39.8046875 C7.87071196 41.87498214 7.91045669 43.94529447 7.94921875 46.015625 C7.96997971 47.00097229 7.99074066 47.98631958 8.01213074 49.00152588 C8.02577164 49.90626648 8.03941254 50.81100708 8.0534668 51.74316406 C8.06741989 52.54304749 8.08137299 53.34293091 8.0957489 54.16705322 C8 56 8 56 7 57 C5.58429877 57.08651611 4.164405 57.10704904 2.74609375 57.09765625 C1.89208984 57.09443359 1.03808594 57.09121094 0.15820312 57.08789062 C-0.73962891 57.07951172 -1.63746094 57.07113281 -2.5625 57.0625 C-3.46419922 57.05798828 -4.36589844 57.05347656 -5.29492188 57.04882812 C-7.53001314 57.03700225 -9.76497437 57.0205222 -12 57 C-12.01981934 55.99622314 -12.03963867 54.99244629 -12.06005859 53.95825195 C-12.13633749 50.22135034 -12.22501986 46.48482683 -12.31738281 42.74829102 C-12.35558072 41.1334583 -12.39044945 39.51854316 -12.421875 37.90356445 C-12.46772609 35.57733783 -12.52568584 33.25167408 -12.5859375 30.92578125 C-12.59748871 30.20787918 -12.60903992 29.48997711 -12.62094116 28.75032043 C-12.7367223 24.78603409 -13.0381801 21.49111582 -15 18 C-15.99 17.67 -16.98 17.34 -18 17 C-20.2322188 18.04841514 -20.2322188 18.04841514 -22 20 C-23.14572974 24.12172412 -23.19763876 28.22961828 -23.31640625 32.48828125 C-23.33718735 33.19147995 -23.35796844 33.89467865 -23.37937927 34.6191864 C-23.44440115 36.85019817 -23.50353776 39.08132069 -23.5625 41.3125 C-23.60573036 42.83139134 -23.64934605 44.35027177 -23.69335938 45.86914062 C-23.80075384 49.57931558 -23.90017767 53.28958277 -24 57 C-30.27 57 -36.54 57 -43 57 C-43.15303218 49.71587636 -43.30179679 42.43169614 -43.4429636 35.14733219 C-43.50867923 31.76523329 -43.57629498 28.38319426 -43.64819336 25.0012207 C-43.73069127 21.11680222 -43.8050324 17.23224873 -43.87890625 13.34765625 C-43.90594131 12.12788589 -43.93297638 10.90811554 -43.96083069 9.65138245 C-43.99097511 7.96975258 -43.99097511 7.96975258 -44.02172852 6.25415039 C-44.04171402 5.26153702 -44.06169952 4.26892365 -44.08229065 3.24623108 C-44 1 -44 1 -43 0 C-41.5112814 -0.08669432 -40.018555 -0.10703494 -38.52734375 -0.09765625 C-37.62822266 -0.09443359 -36.72910156 -0.09121094 -35.80273438 -0.08789062 C-34.85720703 -0.07951172 -33.91167969 -0.07113281 -32.9375 -0.0625 C-31.98810547 -0.05798828 -31.03871094 -0.05347656 -30.06054688 -0.04882812 C-27.70696935 -0.0370011 -25.35351523 -0.02052025 -23 0 C-22.67 1.65 -22.34 3.3 -22 5 C-21.154375 4.21625 -20.30875 3.4325 -19.4375 2.625 C-13.35348136 -2.36446389 -7.17505804 -2.85386924 0 0 Z " fill="#000000" transform="translate(976,208)"/>
<path d="M0 0 C6.19249398 6.10527575 9.01643119 12.94006096 9.18383789 21.49755859 C9.2265506 33.37169164 7.67120481 40.06814303 -0.73046875 48.80859375 C-5.99433236 53.56903416 -12.05271457 54.9140625 -19.05859375 54.9140625 C-27.96453487 54.05306517 -34.21251584 50.80943645 -40.05859375 43.9140625 C-45.49623993 35.73461726 -46.88513362 27.39256075 -45.6484375 17.69921875 C-43.86137094 9.21332786 -40.45643133 2.99437418 -33.24609375 -1.9609375 C-22.66285726 -7.85160687 -9.8443953 -7.36063442 0 0 Z M-23.2578125 12.92578125 C-25.51438104 16.67041234 -25.58115145 19.74010328 -25.43359375 23.9765625 C-25.43230469 24.68361328 -25.43101562 25.39066406 -25.4296875 26.11914062 C-25.36712401 29.8208136 -25.22462776 32.83399286 -23.05859375 35.9140625 C-20.25989348 37.31341263 -18.15360583 37.16671655 -15.05859375 36.9140625 C-12.24811485 34.97580119 -11.70497162 33.16883248 -11.05859375 29.9140625 C-10.5402501 23.40486242 -10.32597703 17.45278409 -14.05859375 11.9140625 C-18.13898749 10.43028296 -19.95737267 9.90672883 -23.2578125 12.92578125 Z " fill="#000000" transform="translate(913.05859375,212.0859375)"/>
<path d="M0 0 C1.24007812 -0.00257813 2.48015625 -0.00515625 3.7578125 -0.0078125 C6.875 0.125 6.875 0.125 8.875 1.125 C8.875 7.065 8.875 13.005 8.875 19.125 C5.905 19.125 2.935 19.125 -0.125 19.125 C-1.86456658 20.86456658 -1.49690386 23.3186622 -1.6875 25.6875 C-1.831875 27.481875 -1.97625 29.27625 -2.125 31.125 C1.505 31.125 5.135 31.125 8.875 31.125 C8.90184679 33.77090014 8.92176357 36.41653096 8.9375 39.0625 C8.94587891 39.81724609 8.95425781 40.57199219 8.96289062 41.34960938 C8.97152441 43.27494313 8.92724333 45.20035581 8.875 47.125 C8.545 47.455 8.215 47.785 7.875 48.125 C4.575 48.125 1.275 48.125 -2.125 48.125 C-2.125 61.325 -2.125 74.525 -2.125 88.125 C-8.725 88.125 -15.325 88.125 -22.125 88.125 C-23.00091135 83.74544324 -23.25541297 79.83539612 -23.22265625 75.41796875 C-23.2212413 74.69257401 -23.21982635 73.96717926 -23.21836853 73.21980286 C-23.21279931 70.9173255 -23.20025261 68.61494765 -23.1875 66.3125 C-23.18248102 64.74544412 -23.17791881 63.1783867 -23.17382812 61.61132812 C-23.16283998 57.78251411 -23.14559673 53.95377389 -23.125 50.125 C-23.785 50.125 -24.445 50.125 -25.125 50.125 C-25.125 49.465 -25.125 48.805 -25.125 48.125 C-26.775 48.125 -28.425 48.125 -30.125 48.125 C-30.31886492 45.47948944 -30.50538267 42.83382217 -30.6875 40.1875 C-30.74357422 39.43275391 -30.79964844 38.67800781 -30.85742188 37.90039062 C-30.98676157 35.97754042 -31.06016912 34.05110452 -31.125 32.125 C-29.15677114 30.15677114 -25.77691291 30.46251619 -23.125 30.125 C-23.186875 28.2378125 -23.186875 28.2378125 -23.25 26.3125 C-23.23897604 19.33433071 -22.9136707 10.574177 -18.125 5.125 C-12.12687816 0.85934539 -7.23435119 -0.01510303 0 0 Z " fill="#000000" transform="translate(506.125,176.875)"/>
<path d="M0 0 C6.27 0 12.54 0 19 0 C21.14285714 10.71428571 21.14285714 10.71428571 19 15 C22.3 15 25.6 15 29 15 C29 20.61 29 26.22 29 32 C25.7 32 22.4 32 19 32 C19.0721875 32.8765625 19.144375 33.753125 19.21875 34.65625 C20.12987477 47.10828847 20.0936027 59.51964025 20 72 C13.4 72 6.8 72 0 72 C-0.33 59.13 -0.66 46.26 -1 33 C-3.31 32.34 -5.62 31.68 -8 31 C-8 25.72 -8 20.44 -8 15 C-5.36 15 -2.72 15 0 15 C0 10.05 0 5.1 0 0 Z " fill="#000000" transform="translate(800,193)"/>
<path d="M0 0 C1.60488281 -0.03867187 1.60488281 -0.03867187 3.2421875 -0.078125 C6.60165285 0.30425317 7.01873386 0.74369184 9.125 3.25 C10.07257746 4.77732834 10.96847333 6.33735663 11.82421875 7.91796875 C12.55415039 9.25698242 12.55415039 9.25698242 13.29882812 10.62304688 C13.79833984 11.55181641 14.29785156 12.48058594 14.8125 13.4375 C15.32361328 14.37787109 15.83472656 15.31824219 16.36132812 16.28710938 C17.62057334 18.60553281 18.87340793 20.9274361 20.125 23.25 C20.125 15.99 20.125 8.73 20.125 1.25 C30.625 0.125 30.625 0.125 35.125 1.25 C35.125 17.42 35.125 33.59 35.125 50.25 C25.125 51.25 25.125 51.25 21.125 50.25 C19.6499947 48.13005312 18.44483538 46.14411829 17.25 43.875 C16.73663086 42.93793213 16.73663086 42.93793213 16.21289062 41.98193359 C15.17212693 40.07725851 14.14861496 38.16393119 13.125 36.25 C11.95900051 34.12463384 10.79241683 31.99958797 9.625 29.875 C8.8 28.34875 7.975 26.8225 7.125 25.25 C7.125 33.5 7.125 41.75 7.125 50.25 C3.11278676 51.05244265 1.13607745 51.32611488 -2.6875 50.8125 C-3.47769531 50.71066406 -4.26789062 50.60882813 -5.08203125 50.50390625 C-5.67371094 50.42011719 -6.26539063 50.33632813 -6.875 50.25 C-6.90026838 43.28996553 -6.91783222 36.3299428 -6.92993164 29.36987305 C-6.93497341 27.00007688 -6.94180665 24.63028385 -6.95043945 22.26049805 C-6.9625119 18.86245961 -6.96822971 15.46446215 -6.97265625 12.06640625 C-6.97781754 10.99975235 -6.98297882 9.93309845 -6.98829651 8.8341217 C-6.98837204 7.85318039 -6.98844757 6.87223907 -6.98852539 5.86157227 C-6.990746 4.99331314 -6.99296661 4.12505402 -6.99525452 3.23048401 C-6.73941222 -0.98300907 -3.53382927 0.05084646 0 0 Z " fill="#000000" transform="translate(686.875,296.75)"/>
<path d="M0 0 C1.14544072 6.29992398 1.34294666 12.6050535 1 19 C-0.61089103 20.61089103 -2.52791576 20.15796101 -4.75 20.25 C-8.22948723 20.60840212 -9.96648933 20.98085105 -13.0625 22.75 C-16.13593748 27.90544351 -15.95177186 33.12152519 -16 39 C-16.00837891 39.84369141 -16.01675781 40.68738281 -16.02539062 41.55664062 C-16.07099256 47.37296024 -16.03957514 53.18245373 -16 59 C-22.93 59 -29.86 59 -37 59 C-37 40.19 -37 21.38 -37 2 C-30.07 2 -23.14 2 -16 2 C-16 3.65 -16 5.3 -16 7 C-15.34 6.21625 -14.68 5.4325 -14 4.625 C-9.72795589 0.8869614 -5.72175032 0 0 0 Z " fill="#000000" transform="translate(724,206)"/>
<path d="M0 0 C7.33152174 7.13858696 7.33152174 7.13858696 7.4375 12.4375 C7.416875 13.38625 7.39625 14.335 7.375 15.3125 C6.68792969 15.37308594 6.00085938 15.43367188 5.29296875 15.49609375 C3.94138672 15.62177734 3.94138672 15.62177734 2.5625 15.75 C1.22251953 15.87181641 1.22251953 15.87181641 -0.14453125 15.99609375 C-2.75243559 16.24739767 -2.75243559 16.24739767 -5.625 17.3125 C-6.285 15.3325 -6.945 13.3525 -7.625 11.3125 C-10.54152174 11.14568891 -10.54152174 11.14568891 -13.625 11.3125 C-17.11836341 14.80586341 -16.71650299 19.51670298 -16.875 24.25 C-16.8173726 29.01866732 -16.07227808 32.20456894 -13.625 36.3125 C-11.6995356 37.4615712 -11.6995356 37.4615712 -9.625 37.3125 C-8.14 36.8175 -8.14 36.8175 -6.625 36.3125 C-5.40630071 33.80802484 -5.40630071 33.80802484 -4.625 31.3125 C-6.605 31.3125 -8.585 31.3125 -10.625 31.3125 C-10.625 27.6825 -10.625 24.0525 -10.625 20.3125 C-4.025 20.3125 2.575 20.3125 9.375 20.3125 C9.82496425 29.49177063 10.15385154 36.80141286 4.375 44.3125 C0.08157695 48.87490859 -4.43021543 49.68942093 -10.5625 50 C-17.31666665 49.71797377 -21.96788228 48.32557576 -26.625 43.3125 C-32.28685603 34.75832234 -33.7353536 25.91901628 -32 15.875 C-30.35165353 9.21245273 -26.80243103 4.17238901 -21.625 -0.25 C-15.1574219 -3.38974149 -6.35589569 -2.95877903 0 0 Z " fill="#010101" transform="translate(762.625,298.6875)"/>
<path d="M0 0 C1.12591553 0.00523682 2.25183105 0.01047363 3.41186523 0.01586914 C4.62680664 0.0190918 5.84174805 0.02231445 7.09350586 0.02563477 C8.37290039 0.03401367 9.65229492 0.04239258 10.97045898 0.05102539 C12.2537207 0.05553711 13.53698242 0.06004883 14.85913086 0.06469727 C18.04209319 0.07652984 21.22503173 0.09446595 24.40795898 0.11352539 C24.40795898 4.07352539 24.40795898 8.03352539 24.40795898 12.11352539 C19.78795898 12.11352539 15.16795898 12.11352539 10.40795898 12.11352539 C10.40795898 14.75352539 10.40795898 17.39352539 10.40795898 20.11352539 C14.69795898 20.11352539 18.98795898 20.11352539 23.40795898 20.11352539 C23.40795898 23.41352539 23.40795898 26.71352539 23.40795898 30.11352539 C19.35520739 31.09601063 15.56934161 31.19512113 11.40795898 31.11352539 C11.07795898 33.75352539 10.74795898 36.39352539 10.40795898 39.11352539 C15.02795898 39.11352539 19.64795898 39.11352539 24.40795898 39.11352539 C25.37612378 42.98618459 25.48418757 46.14963901 25.40795898 50.11352539 C22.25017453 51.16612021 19.99601019 51.24269145 16.68139648 51.24633789 C15.56764648 51.24762695 14.45389648 51.24891602 13.30639648 51.25024414 C12.14366211 51.24637695 10.98092773 51.24250977 9.78295898 51.23852539 C8.61249023 51.24239258 7.44202148 51.24625977 6.23608398 51.25024414 C5.12491211 51.24895508 4.01374023 51.24766602 2.86889648 51.24633789 C1.84586426 51.24520996 0.82283203 51.24408203 -0.23120117 51.24291992 C-2.59204102 51.11352539 -2.59204102 51.11352539 -3.59204102 50.11352539 C-3.69043315 48.58417909 -3.7200264 47.05032973 -3.72143555 45.51782227 C-3.72458771 44.54010864 -3.72773987 43.56239502 -3.73098755 42.55505371 C-3.72896332 41.49153687 -3.72693909 40.42802002 -3.72485352 39.33227539 C-3.72581024 38.24845581 -3.72676697 37.16463623 -3.72775269 36.04797363 C-3.72843467 33.75130149 -3.72657913 31.45462744 -3.72241211 29.15795898 C-3.71706413 25.62878111 -3.72235652 22.09973052 -3.72875977 18.57055664 C-3.72809899 16.34529594 -3.72681783 14.12003532 -3.72485352 11.89477539 C-3.72687775 10.83125854 -3.72890198 9.7677417 -3.73098755 8.67199707 C-3.72783539 7.69428345 -3.72468323 6.71656982 -3.72143555 5.70922852 C-3.72063995 4.8439856 -3.71984436 3.97874268 -3.71902466 3.08728027 C-3.52302026 0.0407097 -3.07266051 0.13457541 0 0 Z " fill="#000000" transform="translate(551.592041015625,296.886474609375)"/>
<path d="M0 0 C6.6 0 13.2 0 20 0 C20 18.81 20 37.62 20 57 C13.4 57 6.8 57 0 57 C0 38.19 0 19.38 0 0 Z " fill="#000000" transform="translate(836,208)"/>
<path d="M0 0 C6.6 0 13.2 0 20 0 C20 18.81 20 37.62 20 57 C13.4 57 6.8 57 0 57 C0 38.19 0 19.38 0 0 Z " fill="#000000" transform="translate(524,208)"/>
<path d="M0 0 C1.19974793 4.29909676 1.08881153 8.55942374 1 13 C0.34 13.33 -0.32 13.66 -1 14 C-1.33 13.34 -1.66 12.68 -2 12 C-4.75078884 11.08307039 -6.35948913 10.89113917 -9.1875 10.9375 C-10.445625 10.958125 -11.70375 10.97875 -13 11 C-13 12.32 -13 13.64 -13 15 C-12.25234375 15.38671875 -11.5046875 15.7734375 -10.734375 16.171875 C-9.74953125 16.69265625 -8.7646875 17.2134375 -7.75 17.75 C-6.77546875 18.26046875 -5.8009375 18.7709375 -4.796875 19.296875 C-1.0506261 21.57811036 1.38250574 23.73560699 3.3125 27.6875 C4.51189596 33.4664078 3.97079291 38.12775652 1.25 43.375 C-2.8126242 48.11472823 -6.50004465 49.49895858 -12.5859375 50.0078125 C-17.92681993 49.99052809 -22.55666172 48.96222552 -27 46 C-27.29296875 42.9609375 -27.29296875 42.9609375 -27.1875 39.375 C-27.16042969 38.18648438 -27.13335938 36.99796875 -27.10546875 35.7734375 C-27.05326172 34.40058594 -27.05326172 34.40058594 -27 33 C-26.44570313 33.30550781 -25.89140625 33.61101562 -25.3203125 33.92578125 C-22.83343403 35.07711387 -20.55979872 35.65454742 -17.875 36.1875 C-17.00617187 36.36667969 -16.13734375 36.54585938 -15.2421875 36.73046875 C-12.96663768 37.212805 -12.96663768 37.212805 -11 36 C-11.13356268 33.59032521 -11.13356268 33.59032521 -12 31 C-14.11183634 29.31287898 -14.11183634 29.31287898 -16.75 28.0625 C-22.22837293 25.02157196 -25.95278336 22.14164992 -28 16 C-28.55627498 10.2147402 -27.60016464 6.46420416 -24 2 C-17.12115174 -3.561622 -7.78348054 -4.94843796 0 0 Z " fill="#010101" transform="translate(806,299)"/>
<path d="M0 0 C1.13050781 -0.01417969 2.26101563 -0.02835937 3.42578125 -0.04296875 C6.6875 0.1875 6.6875 0.1875 11.6875 2.1875 C11.6875 6.4775 11.6875 10.7675 11.6875 15.1875 C10.470625 14.671875 9.25375 14.15625 8 13.625 C4.51720718 12.30116756 2.31196212 11.94159115 -1.3125 13.1875 C-1.3125 14.5075 -1.3125 15.8275 -1.3125 17.1875 C0.76459105 18.64326468 2.71408367 19.81779906 4.9375 21 C10.27443137 24.0649214 13.63331344 26.24117049 15.6875 32.1875 C16.36708649 37.6241919 15.30710863 41.3999394 12.6875 46.1875 C7.89914087 50.73644117 4.28572406 51.34078634 -2.1875 51.375 C-3.40179687 51.38917969 -4.61609375 51.40335937 -5.8671875 51.41796875 C-9.15594421 51.19797255 -11.36615948 50.60465618 -14.3125 49.1875 C-14.53476864 47.41836176 -14.73983873 45.64705629 -14.9375 43.875 C-15.11152344 42.39580078 -15.11152344 42.39580078 -15.2890625 40.88671875 C-15.3125 38.1875 -15.3125 38.1875 -13.3125 35.1875 C-12.8175 35.661875 -12.3225 36.13625 -11.8125 36.625 C-8.27027486 38.83889071 -5.47697906 38.91882393 -1.3125 39.1875 C-0.3225 38.6925 -0.3225 38.6925 0.6875 38.1875 C0.33389587 35.44706797 -0.01568928 34.42727891 -2.203125 32.66015625 C-2.98171875 32.19480469 -3.7603125 31.72945313 -4.5625 31.25 C-9.39115514 28.20234326 -14.52397713 24.87825458 -16.3125 19.1875 C-16.76584816 13.56598283 -16.50183562 10.02649198 -13.3125 5.1875 C-8.6936968 1.01931175 -6.1704379 0.03494019 0 0 Z " fill="#010101" transform="translate(525.3125,296.8125)"/>
<path d="M0 0 C0.66209473 -0.00095673 1.32418945 -0.00191345 2.00634766 -0.00289917 C3.40852961 -0.00358076 4.8107147 -0.00172792 6.21289062 0.00244141 C8.36595713 0.00779004 10.51881502 0.0024958 12.671875 -0.00390625 C14.03125046 -0.00324546 15.3906258 -0.00196429 16.75 0 C18.61785156 0.00169189 18.61785156 0.00169189 20.5234375 0.00341797 C23.375 0.1328125 23.375 0.1328125 24.375 1.1328125 C24.44726502 2.98568752 24.4588122 4.84115128 24.4375 6.6953125 C24.42847656 7.70722656 24.41945313 8.71914063 24.41015625 9.76171875 C24.39855469 10.54417969 24.38695312 11.32664062 24.375 12.1328125 C21.735 12.4628125 19.095 12.7928125 16.375 13.1328125 C16.045 25.6728125 15.715 38.2128125 15.375 51.1328125 C11.085 51.1328125 6.795 51.1328125 2.375 51.1328125 C0.3181054 49.0759179 1.11752924 44.77725252 1.05859375 41.94140625 C1.03781265 41.12156754 1.01703156 40.30172882 0.99562073 39.45704651 C0.93003506 36.82822349 0.87119874 34.19929746 0.8125 31.5703125 C0.76932333 29.79230689 0.72570933 28.01431185 0.68164062 26.23632812 C0.57434457 21.86859616 0.47310296 17.50076023 0.375 13.1328125 C-2.265 12.8028125 -4.905 12.4728125 -7.625 12.1328125 C-7.65187279 10.32039198 -7.67133715 8.50786017 -7.6875 6.6953125 C-7.69910156 5.68597656 -7.71070313 4.67664063 -7.72265625 3.63671875 C-7.52883841 -1.33277058 -4.26149976 0.00386005 0 0 Z " fill="#000000" transform="translate(623.625,296.8671875)"/>
<path d="M0 0 C0.68429077 -0.00095673 1.36858154 -0.00191345 2.0736084 -0.00289917 C3.52286877 -0.0035808 4.97213218 -0.00172773 6.42138672 0.00244141 C8.64687928 0.00778998 10.87217001 0.0024959 13.09765625 -0.00390625 C14.50260461 -0.00324547 15.90755285 -0.0019643 17.3125 0 C18.59962891 0.00112793 19.88675781 0.00225586 21.21289062 0.00341797 C24.15625 0.1328125 24.15625 0.1328125 25.15625 1.1328125 C25.22851502 2.98568752 25.2400622 4.84115128 25.21875 6.6953125 C25.20972656 7.70722656 25.20070313 8.71914063 25.19140625 9.76171875 C25.17980469 10.54417969 25.16820312 11.32664062 25.15625 12.1328125 C22.18625 12.1328125 19.21625 12.1328125 16.15625 12.1328125 C16.15625 24.6728125 16.15625 37.2128125 16.15625 50.1328125 C9.15625 51.1328125 9.15625 51.1328125 2.15625 51.1328125 C2.15625 38.2628125 2.15625 25.3928125 2.15625 12.1328125 C-0.81375 12.1328125 -3.78375 12.1328125 -6.84375 12.1328125 C-7.03776633 10.32099845 -7.22379375 8.50832718 -7.40625 6.6953125 C-7.51066406 5.68597656 -7.61507812 4.67664063 -7.72265625 3.63671875 C-7.76261719 2.81042969 -7.80257812 1.98414063 -7.84375 1.1328125 C-5.93525052 -0.77568698 -2.52896226 0.00221617 0 0 Z " fill="#000000" transform="translate(587.84375,296.8671875)"/>
<path d="M0 0 C4.95 0.33 9.9 0.66 15 1 C14.67 17.17 14.34 33.34 14 50 C9 51 9 51 0 50 C0 33.5 0 17 0 0 Z " fill="#010101" transform="translate(655,297)"/>
<path d="M0 0 C2.56980711 3.47679786 3.125 5.56530995 3.125 9.875 C1.54952248 13.52347425 -0.30136772 16.08818386 -3.875 17.875 C-8.51700273 18.58915427 -11.80961028 18.51867295 -15.875 16.0625 C-18.44748533 13.24884417 -18.82366316 11.32847543 -19.25 7.5625 C-18.74788294 2.62501554 -17.43146309 1.26980568 -13.875 -2.125 C-9.21181535 -4.45659233 -3.9909166 -2.94980792 0 0 Z " fill="#020202" transform="translate(541.875,185.125)"/>
<path d="M0 0 C4.57627119 3.15254237 4.57627119 3.15254237 6 6 C6.67660495 11.86390959 6.67660495 11.86390959 4.953125 14.7578125 C1.79952172 18.59778826 0.18409591 19.88159041 -4.75 20.375 C-8.10058068 20.35058775 -9.84894532 19.75601354 -12.4375 17.625 C-15.21049876 14.78436712 -15.906335 14.0537313 -16.25 10.1875 C-15.9578617 6.46273668 -15.39752014 4.86155629 -13 2 C-8.33532494 -0.64038211 -5.16105037 -1.68295121 0 0 Z " fill="#020202" transform="translate(851,183)"/>
<path d="M0 0 C-1.61042697 4.09926865 -4.57868931 6.76121512 -7.6875 9.75 C-14.26441043 16.21214555 -20.39855176 22.44111574 -24.95703125 30.53125 C-25.30121094 31.0159375 -25.64539063 31.500625 -26 32 C-26.66 32 -27.32 32 -28 32 C-28 33.98 -28 35.96 -28 38 C-28.66 37.67 -29.32 37.34 -30 37 C-30.35294432 33.76564143 -30.19632854 32.30685423 -28.41796875 29.52734375 C-27.68191406 28.67269531 -26.94585937 27.81804687 -26.1875 26.9375 C-25.36765625 25.97972656 -24.5478125 25.02195313 -23.703125 24.03515625 C-20.0745162 19.93504081 -16.38583942 15.89113271 -12.65625 11.8828125 C-9.54360321 8.50467525 -6.53912099 5.04171359 -3.55859375 1.546875 C-2 0 -2 0 0 0 Z " fill="#8C2EF6" transform="translate(103,116)"/>
<path d="M0 0 C0.66 0 1.32 0 2 0 C0.62211705 2.9469554 -0.97477845 5.47050895 -2.9375 8.0625 C-3.44152344 8.73410156 -3.94554688 9.40570313 -4.46484375 10.09765625 C-5.88503966 11.85754279 -7.36860486 13.43678256 -9 15 C-9.66 14.67 -10.32 14.34 -11 14 C-9.21568681 11.66069977 -7.42315931 9.3286163 -5.625 7 C-5.11710937 6.33226562 -4.60921875 5.66453125 -4.0859375 4.9765625 C-3.35117188 4.02910156 -3.35117188 4.02910156 -2.6015625 3.0625 C-2.15119629 2.47597656 -1.70083008 1.88945312 -1.23681641 1.28515625 C-0.82866699 0.86105469 -0.42051758 0.43695313 0 0 Z " fill="#8828F7" transform="translate(91,305)"/>
<path d="M0 0 C0.66 0.99 1.32 1.98 2 3 C0.02 6.96 -1.96 10.92 -4 15 C-5 13 -5 13 -4.00390625 9.9609375 C-3.52824219 8.77757812 -3.05257812 7.59421875 -2.5625 6.375 C-2.08941406 5.18648437 -1.61632812 3.99796875 -1.12890625 2.7734375 C-0.75636719 1.85820312 -0.38382812 0.94296875 0 0 Z " fill="#892AF5" transform="translate(87,182)"/>
<path d="M0 0 C1.7074998 1.28062485 3.37373596 2.61767557 5 4 C5 4.66 5 5.32 5 6 C3.35 6.66 1.7 7.32 0 8 C0 5.36 0 2.72 0 0 Z " fill="#8B2EF5" transform="translate(256,342)"/>
<path d="M0 0 C0.33 1.32 0.66 2.64 1 4 C-0.3125 5.5 -0.3125 5.5 -2 7 C-3.17574711 9.09989652 -3.17574711 9.09989652 -4 11 C-4.66 10.01 -5.32 9.02 -6 8 C-4.02 5.36 -2.04 2.72 0 0 Z " fill="#8A2CF7" transform="translate(79,320)"/>
<path d="M0 0 C2.97 0 5.94 0 9 0 C6.3144406 2.6855594 3.62378672 3.06049974 0 4 C0 2.68 0 1.36 0 0 Z " fill="#8B28F9" transform="translate(232,356)"/>
<path d="M0 0 C1.65 0 3.3 0 5 0 C5 0.33 5 0.66 5 1 C3.35 1 1.7 1 0 1 C0 0.67 0 0.34 0 0 Z " fill="#000000" transform="translate(848,266)"/>
<path d="M0 0 C1.65 0 3.3 0 5 0 C5 0.33 5 0.66 5 1 C3.35 1 1.7 1 0 1 C0 0.67 0 0.34 0 0 Z " fill="#000000" transform="translate(536,266)"/>
<path d="M0 0 C1.65 0 3.3 0 5 0 C5 0.33 5 0.66 5 1 C3.35 1 1.7 1 0 1 C0 0.67 0 0.34 0 0 Z " fill="#000000" transform="translate(424,266)"/>
<path d="M0 0 C3 1 3 1 3 1 Z " fill="#000000" transform="translate(761,317)"/>
<path d="M0 0 C3 1 3 1 3 1 Z " fill="#000000" transform="translate(839,266)"/>
<path d="M0 0 C0.33 0.66 0.66 1.32 1 2 C0.34 1.67 -0.32 1.34 -1 1 C-0.67 0.67 -0.34 0.34 0 0 Z " fill="#000000" transform="translate(569,264)"/>
<path d="" fill="#000000" transform="translate(0,0)"/>
<path d="" fill="#000000" transform="translate(0,0)"/>
<path d="" fill="#000000" transform="translate(0,0)"/>
<path d="M0 0 C2 1 2 1 2 1 Z " fill="#000000" transform="translate(978,266)"/>
<path d="M0 0 C2 1 2 1 2 1 Z " fill="#000000" transform="translate(705,266)"/>
<path d="M0 0 C2 1 2 1 2 1 Z " fill="#000000" transform="translate(696,266)"/>
<path d="M0 0 C2 1 2 1 2 1 Z " fill="#000000" transform="translate(691,266)"/>
<path d="M0 0 C2 1 2 1 2 1 Z " fill="#000000" transform="translate(499,266)"/>
<path d="M0 0 C2 1 2 1 2 1 Z " fill="#000000" transform="translate(488,266)"/>
<path d="M0 0 C2 1 2 1 2 1 Z " fill="#000000" transform="translate(448,266)"/>
<path d="M0 0 C2 1 2 1 2 1 Z " fill="#000000" transform="translate(419,266)"/>
<path d="M0 0 C2 1 2 1 2 1 Z " fill="#000000" transform="translate(416,266)"/>
<path d="M0 0 C2 1 2 1 2 1 Z " fill="#2A002A" transform="translate(171,266)"/>
<path d="M0 0 C2 1 2 1 2 1 Z " fill="#2A2A2A" transform="translate(168,266)"/>
<path d="" fill="#000000" transform="translate(0,0)"/>
<path d="" fill="#000000" transform="translate(0,0)"/>
<path d="M0 0 C2 1 2 1 2 1 Z " fill="#000000" transform="translate(704,206)"/>
<path d="M0 0 C2 1 2 1 2 1 Z " fill="#000000" transform="translate(817,191)"/>
<path d="M0 0 C2 1 2 1 2 1 Z " fill="#000000" transform="translate(516,189)"/>
<path d="" fill="#000000" transform="translate(0,0)"/>
<path d="" fill="#000000" transform="translate(0,0)"/>
<path d="" fill="#000000" transform="translate(0,0)"/>
<path d="" fill="#000000" transform="translate(0,0)"/>
<path d="" fill="#000000" transform="translate(0,0)"/>
<path d="" fill="#000000" transform="translate(0,0)"/>
<path d="" fill="#000000" transform="translate(0,0)"/>
<path d="" fill="#000000" transform="translate(0,0)"/>
<path d="" fill="#000000" transform="translate(0,0)"/>
<path d="" fill="#000000" transform="translate(0,0)"/>
<path d="" fill="#000000" transform="translate(0,0)"/>
<path d="" fill="#000000" transform="translate(0,0)"/>
<path d="" fill="#000000" transform="translate(0,0)"/>
<path d="" fill="#000000" transform="translate(0,0)"/>
<path d="" fill="#7F007F" transform="translate(0,0)"/>
<path d="" fill="#000000" transform="translate(0,0)"/>
<path d="" fill="#000000" transform="translate(0,0)"/>
<path d="" fill="#000000" transform="translate(0,0)"/>
<path d="" fill="#000000" transform="translate(0,0)"/>
<path d="" fill="#000000" transform="translate(0,0)"/>
<path d="" fill="#000000" transform="translate(0,0)"/>
<path d="" fill="#000000" transform="translate(0,0)"/>
<path d="" fill="#000000" transform="translate(0,0)"/>
<path d="" fill="#000000" transform="translate(0,0)"/>
<path d="" fill="#000000" transform="translate(0,0)"/>
<path d="" fill="#000000" transform="translate(0,0)"/>
<path d="" fill="#000000" transform="translate(0,0)"/>
<path d="" fill="#000000" transform="translate(0,0)"/>
<path d="" fill="#000000" transform="translate(0,0)"/>
<path d="" fill="#000000" transform="translate(0,0)"/>
<path d="" fill="#000000" transform="translate(0,0)"/>
<path d="" fill="#000000" transform="translate(0,0)"/>
<path d="" fill="#000000" transform="translate(0,0)"/>
<path d="" fill="#000000" transform="translate(0,0)"/>
<path d="" fill="#000000" transform="translate(0,0)"/>
<path d="" fill="#000000" transform="translate(0,0)"/>
<path d="" fill="#7F007F" transform="translate(0,0)"/>
<path d="" fill="#000000" transform="translate(0,0)"/>
<path d="" fill="#7F007F" transform="translate(0,0)"/>
<path d="" fill="#000000" transform="translate(0,0)"/>
<path d="" fill="#000000" transform="translate(0,0)"/>
<path d="" fill="#000000" transform="translate(0,0)"/>
<path d="" fill="#000000" transform="translate(0,0)"/>
<path d="" fill="#000000" transform="translate(0,0)"/>
<path d="" fill="#000000" transform="translate(0,0)"/>
<path d="" fill="#000000" transform="translate(0,0)"/>
<path d="" fill="#000000" transform="translate(0,0)"/>
<path d="" fill="#000000" transform="translate(0,0)"/>
<path d="" fill="#000000" transform="translate(0,0)"/>
<path d="" fill="#000000" transform="translate(0,0)"/>
<path d="" fill="#000000" transform="translate(0,0)"/>
<path d="" fill="#000000" transform="translate(0,0)"/>
<path d="" fill="#000000" transform="translate(0,0)"/>
<path d="" fill="#000000" transform="translate(0,0)"/>
<path d="" fill="#000000" transform="translate(0,0)"/>
<path d="" fill="#000000" transform="translate(0,0)"/>
<path d="" fill="#000000" transform="translate(0,0)"/>
<path d="" fill="#000000" transform="translate(0,0)"/>
<path d="" fill="#000000" transform="translate(0,0)"/>
<path d="" fill="#000000" transform="translate(0,0)"/>
<path d="" fill="#000000" transform="translate(0,0)"/>
<path d="" fill="#000000" transform="translate(0,0)"/>
<path d="" fill="#000000" transform="translate(0,0)"/>
<path d="" fill="#000000" transform="translate(0,0)"/>
<path d="" fill="#000000" transform="translate(0,0)"/>
<path d="" fill="#000000" transform="translate(0,0)"/>
<path d="" fill="#000000" transform="translate(0,0)"/>
<path d="" fill="#000000" transform="translate(0,0)"/>
<path d="" fill="#000000" transform="translate(0,0)"/>
<path d="" fill="#000000" transform="translate(0,0)"/>
<path d="" fill="#000000" transform="translate(0,0)"/>
<path d="" fill="#000000" transform="translate(0,0)"/>
<path d="" fill="#000000" transform="translate(0,0)"/>
<path d="" fill="#000000" transform="translate(0,0)"/>
<path d="" fill="#000000" transform="translate(0,0)"/>
<path d="" fill="#0000FF" transform="translate(0,0)"/>
<path d="" fill="#000000" transform="translate(0,0)"/>
<path d="" fill="#FF00FF" transform="translate(0,0)"/>
<path d="" fill="#FF00FF" transform="translate(0,0)"/>
</svg>
